<?xml version="1.0" standalone="no"?>
<svg xmlns:xlink="http://www.w3.org/1999/xlink" id="wave" style="transform:rotate(0deg); transition: 0.3s" viewBox="0 0 1440 490" version="1.1" xmlns="http://www.w3.org/2000/svg"><defs><linearGradient id="sw-gradient-0" x1="0" x2="0" y1="1" y2="0"><stop stop-color="rgba(58, 123, 213, 1)" offset="0%"/><stop stop-color="rgba(0, 210, 255, 1)" offset="100%"/></linearGradient></defs><path style="transform:translate(0, 0px); opacity:1" fill="url(#sw-gradient-0)" d="M0,196L26.7,204.2C53.3,212,107,229,160,228.7C213.3,229,267,212,320,179.7C373.3,147,427,98,480,122.5C533.3,147,587,245,640,310.3C693.3,376,747,408,800,367.5C853.3,327,907,212,960,204.2C1013.3,196,1067,294,1120,294C1173.3,294,1227,196,1280,187.8C1333.3,180,1387,261,1440,277.7C1493.3,294,1547,245,1600,245C1653.3,245,1707,294,1760,261.3C1813.3,229,1867,114,1920,81.7C1973.3,49,2027,98,2080,106.2C2133.3,114,2187,82,2240,81.7C2293.3,82,2347,114,2400,155.2C2453.3,196,2507,245,2560,285.8C2613.3,327,2667,359,2720,375.7C2773.3,392,2827,392,2880,334.8C2933.3,278,2987,163,3040,114.3C3093.3,65,3147,82,3200,122.5C3253.3,163,3307,229,3360,236.8C3413.3,245,3467,196,3520,163.3C3573.3,131,3627,114,3680,122.5C3733.3,131,3787,163,3813,179.7L3840,196L3840,490L3813.3,490C3786.7,490,3733,490,3680,490C3626.7,490,3573,490,3520,490C3466.7,490,3413,490,3360,490C3306.7,490,3253,490,3200,490C3146.7,490,3093,490,3040,490C2986.7,490,2933,490,2880,490C2826.7,490,2773,490,2720,490C2666.7,490,2613,490,2560,490C2506.7,490,2453,490,2400,490C2346.7,490,2293,490,2240,490C2186.7,490,2133,490,2080,490C2026.7,490,1973,490,1920,490C1866.7,490,1813,490,1760,490C1706.7,490,1653,490,1600,490C1546.7,490,1493,490,1440,490C1386.7,490,1333,490,1280,490C1226.7,490,1173,490,1120,490C1066.7,490,1013,490,960,490C906.7,490,853,490,800,490C746.7,490,693,490,640,490C586.7,490,533,490,480,490C426.7,490,373,490,320,490C266.7,490,213,490,160,490C106.7,490,53,490,27,490L0,490Z"/></svg>